<svg id="svg" xmlns="http://www.w3.org/2000/svg" xmlns:xlink="http://www.w3.org/1999/xlink" width="400" height="400" viewBox="0, 0, 400,400" version="1.1"><g id="svgg"><path id="path0" d="M100.000 187.500 L 100.000 300.000 167.936 300.000 C 279.262 300.000,353.140 234.317,287.466 193.729 C 279.131 188.578,279.279 177.862,287.906 161.741 C 315.346 110.470,260.823 67.871,179.635 77.149 C 139.919 81.688,121.700 234.317,159.375 246.875 C 168.640 249.963,175.000 241.161,175.000 225.250 C 175.000 185.114,254.456 193.620,260.244 234.375 C 263.976 260.653,259.667 262.500,194.619 262.500 L 125.000 262.500 125.000 168.750 C 125.000 114.583,119.722 75.000,112.500 75.000 C 105.093 75.000,100.000 120.833,100.000 187.500 M256.250 137.500 C 256.250 149.517,241.662 157.657,215.625 160.167 C 181.299 163.477,175.000 159.962,175.000 137.500 C 175.000 115.038,181.299 111.523,215.625 114.833 C 241.662 117.343,256.250 125.483,256.250 137.500 " stroke="none" fill="#000000" fill-rule="evenodd"></path></g></svg>